<svg xmlns:xlink="http://www.w3.org/1999/xlink" xmlns="http://www.w3.org/2000/svg" class="ui-pdp-icon ui-pdp-icon--protected ui-pdp-color--GRAY" width="12" height="14" viewBox="0 0 12 14">
	<defs>
		<symbol id="warranty">
			<path fill-rule="nonzero" d="M5.305 10.354l-1.686 3.34-1.24-2.458H0l1.64-3.202a5.2 5.2 0 1 1 8.588.194l1.54 3.008H9.39l-1.241 2.458-1.673-3.315a5.266 5.266 0 0 1-1.171-.025zm-1.001-.237a5.201 5.201 0 0 1-1.975-1.234l-.693 1.353h1.357l.626 1.239.685-1.358zm3.192.064l.653 1.294.625-1.239h1.358l-.617-1.204a5.193 5.193 0 0 1-2.019 1.15zM6 9.2a4 4 0 1 0 0-8 4 4 0 0 0 0 8z" />
		</symbol>
	</defs>
	<use href="#warranty" fill-opacity="0.55" fill="#000000" />
</svg>
